<?xml version="1.0" encoding="UTF-8"?>
<svg width="334px" height="55px" viewBox="0 0 334 55" version="1.1" xmlns="http://www.w3.org/2000/svg" xmlns:xlink="http://www.w3.org/1999/xlink">
    <!-- Generator: Sketch 42 (36781) - http://www.bohemiancoding.com/sketch -->
    <title>social login</title>
    <desc>Created with Sketch.</desc>
    <defs>
        <rect id="path-1" x="0" y="0" width="330" height="49" rx="2"></rect>
        <filter x="-50%" y="-50%" width="200%" height="200%" filterUnits="objectBoundingBox" id="filter-2">
            <feOffset dx="0" dy="2" in="SourceAlpha" result="shadowOffsetOuter1"></feOffset>
            <feGaussianBlur stdDeviation="1" in="shadowOffsetOuter1" result="shadowBlurOuter1"></feGaussianBlur>
            <feColorMatrix values="0 0 0 0 0   0 0 0 0 0   0 0 0 0 0  0 0 0 0.24 0" type="matrix" in="shadowBlurOuter1" result="shadowMatrixOuter1"></feColorMatrix>
            <feOffset dx="0" dy="0" in="SourceAlpha" result="shadowOffsetOuter2"></feOffset>
            <feGaussianBlur stdDeviation="1" in="shadowOffsetOuter2" result="shadowBlurOuter2"></feGaussianBlur>
            <feColorMatrix values="0 0 0 0 0   0 0 0 0 0   0 0 0 0 0  0 0 0 0.12 0" type="matrix" in="shadowBlurOuter2" result="shadowMatrixOuter2"></feColorMatrix>
            <feMerge>
                <feMergeNode in="shadowMatrixOuter1"></feMergeNode>
                <feMergeNode in="shadowMatrixOuter2"></feMergeNode>
            </feMerge>
        </filter>
    </defs>
    <g id="Onboarding" stroke="none" stroke-width="1" fill="none" fill-rule="evenodd">
        <g id="Login---Desktop" transform="translate(-453.000000, -519.000000)">
            <g id="content" transform="translate(412.000000, 216.000000)">
                <g id="social-login" transform="translate(43.000000, 305.000000)">
                    <g id="button-bg">
                        <use fill="black" fill-opacity="1" filter="url(#filter-2)" xlink:href="#path-1"></use>
                        <use fill="#0062B3" fill-rule="evenodd" xlink:href="#path-1"></use>
                    </g>
                    <path d="M78.7412109,29.6191406 L83.2597656,29.6191406 L83.2597656,31 L77.0117188,31 L77.0117188,21.046875 L78.7412109,21.046875 L78.7412109,29.6191406 Z M92.5917969,26.2832031 C92.5917969,27.2584684 92.4231788,28.1140914 92.0859375,28.8500977 C91.7486962,29.5861039 91.2667675,30.1512025 90.6401367,30.5454102 C90.013506,30.9396179 89.2923218,31.1367188 88.4765625,31.1367188 C87.6699178,31.1367188 86.9510123,30.9396179 86.3198242,30.5454102 C85.6886362,30.1512025 85.2010108,29.5895219 84.8569336,28.8603516 C84.5128564,28.1311812 84.3385417,27.2903693 84.3339844,26.3378906 L84.3339844,25.7773438 C84.3339844,24.8066358 84.5060204,23.9498735 84.8500977,23.2070312 C85.1941749,22.464189 85.6795216,21.8956725 86.3061523,21.5014648 C86.9327831,21.1072571 87.6516887,20.9101562 88.4628906,20.9101562 C89.2740926,20.9101562 89.9929982,21.1049785 90.6196289,21.4946289 C91.2462596,21.8842793 91.730467,22.4448206 92.0722656,23.1762695 C92.4140642,23.9077185 92.5872396,24.7587842 92.5917969,25.7294922 L92.5917969,26.2832031 Z M90.8623047,25.7636719 C90.8623047,24.6608018 90.6538107,23.8154326 90.2368164,23.2275391 C89.8198221,22.6396455 89.2285195,22.3457031 88.4628906,22.3457031 C87.7154911,22.3457031 87.1310242,22.6385062 86.7094727,23.2241211 C86.2879211,23.809736 86.0725912,24.6380155 86.0634766,25.7089844 L86.0634766,26.2832031 C86.0634766,27.3769586 86.2765278,28.2223277 86.7026367,28.8193359 C87.1287456,29.4163441 87.7200483,29.7148438 88.4765625,29.7148438 C89.2421913,29.7148438 89.8312154,29.42318 90.2436523,28.8398438 C90.6560893,28.2565075 90.8623047,27.4043025 90.8623047,26.2832031 L90.8623047,25.7636719 Z M102.443359,29.7080078 C102.083332,30.1774112 101.584313,30.5328764 100.946289,30.7744141 C100.308265,31.0159517 99.5836629,31.1367188 98.7724609,31.1367188 C97.9384724,31.1367188 97.2001985,30.947593 96.5576172,30.5693359 C95.9150358,30.1910788 95.4194353,29.6499059 95.0708008,28.9458008 C94.7221662,28.2416957 94.5410157,27.4202521 94.5273438,26.4814453 L94.5273438,25.7021484 C94.5273438,24.1982347 94.8873662,23.0236045 95.6074219,22.1782227 C96.3274776,21.3328408 97.3323503,20.9101562 98.6220703,20.9101562 C99.7294977,20.9101562 100.609046,21.183591 101.260742,21.7304688 C101.912438,22.2773465 102.304361,23.0657501 102.436523,24.0957031 L100.741211,24.0957031 C100.549804,22.8971294 99.8548237,22.2978516 98.65625,22.2978516 C97.8815065,22.2978516 97.2924825,22.5769829 96.8891602,23.1352539 C96.4858378,23.6935249 96.2773438,24.5126899 96.2636719,25.5927734 L96.2636719,26.3583984 C96.2636719,27.4339246 96.4903949,28.26904 96.9438477,28.8637695 C97.3973004,29.4584991 98.0273397,29.7558594 98.8339844,29.7558594 C99.7181034,29.7558594 100.347003,29.5553405 100.720703,29.1542969 L100.720703,27.2060547 L98.6699219,27.2060547 L98.6699219,25.8935547 L102.443359,25.8935547 L102.443359,29.7080078 Z M110.655273,31 L108.932617,31 L108.932617,21.046875 L110.655273,21.046875 L110.655273,31 Z M121.176758,31 L119.447266,31 L115.010742,23.9384766 L115.010742,31 L113.28125,31 L113.28125,21.046875 L115.010742,21.046875 L119.460938,28.1357422 L119.460938,21.046875 L121.176758,21.046875 L121.176758,31 Z M135.513672,28.5390625 L137.044922,21.046875 L138.760742,21.046875 L136.463867,31 L134.80957,31 L132.916016,23.7333984 L130.981445,31 L129.320312,31 L127.023438,21.046875 L128.739258,21.046875 L130.28418,28.5253906 L132.18457,21.046875 L133.633789,21.046875 L135.513672,28.5390625 Z M142.350586,31 L140.62793,31 L140.62793,21.046875 L142.350586,21.046875 L142.350586,31 Z M151.969727,22.4414062 L148.866211,22.4414062 L148.866211,31 L147.150391,31 L147.150391,22.4414062 L144.074219,22.4414062 L144.074219,21.046875 L151.969727,21.046875 L151.969727,22.4414062 Z M161.677734,31 L159.955078,31 L159.955078,26.5771484 L155.504883,26.5771484 L155.504883,31 L153.775391,31 L153.775391,21.046875 L155.504883,21.046875 L155.504883,25.1894531 L159.955078,25.1894531 L159.955078,21.046875 L161.677734,21.046875 L161.677734,31 Z M173.943359,26.7822266 L169.9375,26.7822266 L169.9375,31 L168.208008,31 L168.208008,21.046875 L174.53125,21.046875 L174.53125,22.4414062 L169.9375,22.4414062 L169.9375,25.4013672 L173.943359,25.4013672 L173.943359,26.7822266 Z M180.657227,28.6826172 L176.801758,28.6826172 L175.995117,31 L174.197266,31 L177.957031,21.046875 L179.508789,21.046875 L183.275391,31 L181.470703,31 L180.657227,28.6826172 Z M177.287109,27.2880859 L180.171875,27.2880859 L178.729492,23.1591797 L177.287109,27.2880859 Z M192.354492,27.7597656 C192.254231,28.8216199 191.862308,29.6498994 191.178711,30.2446289 C190.495114,30.8393584 189.585943,31.1367188 188.451172,31.1367188 C187.658199,31.1367188 186.959801,30.9487323 186.355957,30.5727539 C185.752113,30.1967755 185.286134,29.6624384 184.958008,28.9697266 C184.629881,28.2770148 184.458984,27.4726608 184.445312,26.5566406 L184.445312,25.6269531 C184.445312,24.6881463 184.611652,23.8610062 184.944336,23.1455078 C185.27702,22.4300094 185.754391,21.8785827 186.376465,21.4912109 C186.998538,21.1038392 187.717444,20.9101562 188.533203,20.9101562 C189.631516,20.9101562 190.515622,21.2086559 191.185547,21.8056641 C191.855472,22.4026723 192.245117,23.2457628 192.354492,24.3349609 L190.631836,24.3349609 C190.549804,23.6194626 190.34131,23.1033544 190.006348,22.7866211 C189.671385,22.4698877 189.180342,22.3115234 188.533203,22.3115234 C187.781246,22.3115234 187.203615,22.5860975 186.800293,23.1352539 C186.396971,23.6844103 186.190755,24.4899035 186.181641,25.5517578 L186.181641,26.4335938 C186.181641,27.50912 186.374184,28.3294243 186.759277,28.8945312 C187.14437,29.4596382 187.70833,29.7421875 188.451172,29.7421875 C189.130212,29.7421875 189.640623,29.5895198 189.982422,29.2841797 C190.32422,28.9788396 190.54069,28.4707067 190.631836,27.7597656 L192.354492,27.7597656 Z M200.216797,26.5566406 L196.128906,26.5566406 L196.128906,29.6191406 L200.907227,29.6191406 L200.907227,31 L194.399414,31 L194.399414,21.046875 L200.859375,21.046875 L200.859375,22.4414062 L196.128906,22.4414062 L196.128906,25.1894531 L200.216797,25.1894531 L200.216797,26.5566406 Z M202.81543,31 L202.81543,21.046875 L206.226562,21.046875 C207.352219,21.046875 208.208981,21.2724587 208.796875,21.7236328 C209.384769,22.1748069 209.678711,22.8470007 209.678711,23.7402344 C209.678711,24.1959658 209.555665,24.606118 209.30957,24.9707031 C209.063475,25.3352883 208.703453,25.6178375 208.229492,25.8183594 C208.767255,25.9641934 209.183104,26.2387675 209.477051,26.6420898 C209.770998,27.0454122 209.917969,27.5296196 209.917969,28.0947266 C209.917969,29.028976 209.61833,29.7467423 209.019043,30.2480469 C208.419756,30.7493515 207.561855,31 206.445312,31 L202.81543,31 Z M204.544922,26.5087891 L204.544922,29.6191406 L206.46582,29.6191406 C207.008141,29.6191406 207.431965,29.4847019 207.737305,29.2158203 C208.042645,28.9469388 208.195312,28.5732446 208.195312,28.0947266 C208.195312,27.0602162 207.666672,26.5315756 206.609375,26.5087891 L204.544922,26.5087891 Z M204.544922,25.2373047 L206.240234,25.2373047 C206.777997,25.2373047 207.198403,25.1153984 207.501465,24.871582 C207.804526,24.6277657 207.956055,24.2825543 207.956055,23.8359375 C207.956055,23.3437475 207.815919,22.9882823 207.535645,22.7695312 C207.25537,22.5507802 206.819013,22.4414062 206.226562,22.4414062 L204.544922,22.4414062 L204.544922,25.2373047 Z M220.09082,26.2832031 C220.09082,27.2584684 219.922202,28.1140914 219.584961,28.8500977 C219.24772,29.5861039 218.765791,30.1512025 218.13916,30.5454102 C217.512529,30.9396179 216.791345,31.1367188 215.975586,31.1367188 C215.168941,31.1367188 214.450036,30.9396179 213.818848,30.5454102 C213.18766,30.1512025 212.700034,29.5895219 212.355957,28.8603516 C212.01188,28.1311812 211.837565,27.2903693 211.833008,26.3378906 L211.833008,25.7773438 C211.833008,24.8066358 212.005044,23.9498735 212.349121,23.2070312 C212.693198,22.464189 213.178545,21.8956725 213.805176,21.5014648 C214.431807,21.1072571 215.150712,20.9101562 215.961914,20.9101562 C216.773116,20.9101562 217.492022,21.1049785 218.118652,21.4946289 C218.745283,21.8842793 219.22949,22.4448206 219.571289,23.1762695 C219.913088,23.9077185 220.086263,24.7587842 220.09082,25.7294922 L220.09082,26.2832031 Z M218.361328,25.7636719 C218.361328,24.6608018 218.152834,23.8154326 217.73584,23.2275391 C217.318846,22.6396455 216.727543,22.3457031 215.961914,22.3457031 C215.214514,22.3457031 214.630048,22.6385062 214.208496,23.2241211 C213.786945,23.809736 213.571615,24.6380155 213.5625,25.7089844 L213.5625,26.2832031 C213.5625,27.3769586 213.775551,28.2223277 214.20166,28.8193359 C214.627769,29.4163441 215.219072,29.7148438 215.975586,29.7148438 C216.741215,29.7148438 217.330239,29.42318 217.742676,28.8398438 C218.155113,28.2565075 218.361328,27.4043025 218.361328,26.2832031 L218.361328,25.7636719 Z M230.256836,26.2832031 C230.256836,27.2584684 230.088218,28.1140914 229.750977,28.8500977 C229.413735,29.5861039 228.931807,30.1512025 228.305176,30.5454102 C227.678545,30.9396179 226.957361,31.1367188 226.141602,31.1367188 C225.334957,31.1367188 224.616051,30.9396179 223.984863,30.5454102 C223.353675,30.1512025 222.86605,29.5895219 222.521973,28.8603516 C222.177895,28.1311812 222.003581,27.2903693 221.999023,26.3378906 L221.999023,25.7773438 C221.999023,24.8066358 222.171059,23.9498735 222.515137,23.2070312 C222.859214,22.464189 223.344561,21.8956725 223.971191,21.5014648 C224.597822,21.1072571 225.316728,20.9101562 226.12793,20.9101562 C226.939132,20.9101562 227.658037,21.1049785 228.284668,21.4946289 C228.911299,21.8842793 229.395506,22.4448206 229.737305,23.1762695 C230.079103,23.9077185 230.252279,24.7587842 230.256836,25.7294922 L230.256836,26.2832031 Z M228.527344,25.7636719 C228.527344,24.6608018 228.31885,23.8154326 227.901855,23.2275391 C227.484861,22.6396455 226.893559,22.3457031 226.12793,22.3457031 C225.38053,22.3457031 224.796063,22.6385062 224.374512,23.2241211 C223.95296,23.809736 223.73763,24.6380155 223.728516,25.7089844 L223.728516,26.2832031 C223.728516,27.3769586 223.941567,28.2223277 224.367676,28.8193359 C224.793785,29.4163441 225.385087,29.7148438 226.141602,29.7148438 C226.90723,29.7148438 227.496254,29.42318 227.908691,28.8398438 C228.321128,28.2565075 228.527344,27.4043025 228.527344,26.2832031 L228.527344,25.7636719 Z M235.336914,26.7001953 L234.208984,27.8964844 L234.208984,31 L232.479492,31 L232.479492,21.046875 L234.208984,21.046875 L234.208984,25.7158203 L235.166016,24.5332031 L238.078125,21.046875 L240.169922,21.046875 L236.47168,25.4560547 L240.381836,31 L238.331055,31 L235.336914,26.7001953 Z" id="LOG-IN-WITH-FACEBOOK" fill="#FFFFFF"></path>
                    <g id="ic_facebook" transform="translate(25.000000, 11.000000)" fill-rule="nonzero" fill="#FFFFFF">
                        <g id="Layer_1">
                            <path d="M9.71052632,28.973516 L9.71052632,15.7579909 L14.1184211,15.7579909 L14.7763158,10.6068493 L9.71052632,10.6068493 L9.71052632,7.32283105 C9.71052632,5.82648402 10.1184211,4.82009132 12.25,4.82009132 L14.9605263,4.82009132 L14.9605263,0.198630137 C14.4868421,0.1456621 12.8684211,0 11,0 C7.09210526,0 4.42105263,2.39680365 4.42105263,6.80639269 L4.42105263,10.6068493 L0,10.6068493 L0,15.7579909 L4.42105263,15.7579909 L4.42105263,28.973516 L9.71052632,28.973516 Z" id="fk"></path>
                        </g>
                    </g>
                </g>
            </g>
        </g>
    </g>
</svg>